<svg width="16" height="17" viewBox="0 0 16 17" fill="none" xmlns="http://www.w3.org/2000/svg">
<g clip-path="url(#clip0_2349_9328)">
<path d="M3 9H6V10H3V9ZM3 11H8V12H3V11Z" fill="#FCF66D"/>
<path d="M12 2H2C1.73486 2.00026 1.48066 2.10571 1.29319 2.29319C1.10571 2.48066 1.00026 2.73486 1 3V13C1.00026 13.2651 1.10571 13.5193 1.29319 13.7068C1.48066 13.8943 1.73486 13.9997 2 14H12C12.2651 13.9997 12.5193 13.8943 12.7068 13.7068C12.8943 13.5193 12.9997 13.2651 13 13V3C12.9997 2.73486 12.8943 2.48066 12.7068 2.29319C12.5193 2.10571 12.2651 2.00026 12 2ZM8 3V5H6V3H8ZM2 13V3H5V6H9V3H12L12.0005 13H2Z" fill="#FCF66D"/>
</g>
<defs>
<clipPath id="clip0_2349_9328">
<rect width="16" height="16" fill="white" transform="translate(0 0.5)"/>
</clipPath>
</defs>
</svg>
