<svg width="16" height="17" viewBox="0 0 16 17" fill="none" xmlns="http://www.w3.org/2000/svg">
<g clip-path="url(#clip0_855_10624)">
<path d="M7.99934 15.1667C4.70379 15.1232 2.04278 12.4622 1.99934 9.16668C2.04278 5.87113 4.70379 3.21011 7.99934 3.16668C11.2949 3.21011 13.9559 5.87113 13.9993 9.16668C13.9559 12.4622 11.2949 15.1232 7.99934 15.1667ZM7.99934 4.50001C5.43612 4.53376 3.36642 6.60346 3.33268 9.16668C3.36642 11.7299 5.43612 13.7996 7.99934 13.8333C10.5626 13.7996 12.6323 11.7299 12.666 9.16668C12.6323 6.60346 10.5626 4.53376 7.99934 4.50001ZM11.3327 9.83334H7.33268V5.83334H8.66601V8.50001H11.3327V9.83334ZM13.5273 4.97201L11.5213 2.97201L12.4607 2.02734L14.4673 4.02734L13.5273 4.97134V4.97201ZM2.47068 4.97201L1.52734 4.02734L3.52134 2.02734L4.46468 2.97201L2.47201 4.97201H2.47068Z" fill="#23A6F0"/>
</g>
<defs>
<clipPath id="clip0_855_10624">
<rect width="16" height="16" fill="white" transform="translate(0 0.5)"/>
</clipPath>
</defs>
</svg>
