<svg width="16" height="17" viewBox="0 0 16 17" fill="none" xmlns="http://www.w3.org/2000/svg">
<path d="M15 3.807L14.3425 4.0255C13.4214 4.31404 12.4649 4.47373 11.5 4.5C10.633 4.5 9.839 4.0465 8.998 3.566C8.081 3.042 7.133 2.5 6 2.5C4.5615 2.5 2.9575 3.603 2 4.386V1.5H1V14.5C1.00026 14.7651 1.10571 15.0193 1.29319 15.2068C1.48066 15.3943 1.73486 15.4997 2 15.5H15V3.807ZM2 10.647C2.937 9.188 4.78 7 6 7C6.819 7 7.48 7.551 8.18 8.1345C8.9485 8.7745 9.819 9.5 11 9.5C12.118 9.44638 13.1809 8.99837 14 8.2355V10.7135C13.0781 11.2138 12.0488 11.4837 11 11.5C10.1978 11.4786 9.40531 11.3181 8.658 11.0255C7.80921 10.6974 6.90978 10.5196 6 10.5C4.5365 10.5 2.966 11.9795 2 13.079V10.647ZM6 3.5C6.867 3.5 7.661 3.9535 8.502 4.434C9.419 4.958 10.367 5.5 11.5 5.5C12.3438 5.48583 13.1829 5.37204 14 5.161V6.8215C13.6585 7.223 12.458 8.5 11 8.5C10.181 8.5 9.52 7.949 8.82 7.3655C8.0515 6.7255 7.181 6 6 6C4.532 6 2.9685 7.67 2 8.9225V5.712C2.773 4.983 4.6295 3.5 6 3.5ZM2.1245 14.5C2.931 13.4545 4.705 11.5 6 11.5C6.80225 11.5214 7.59469 11.6819 8.342 11.9745C9.19079 12.3026 10.0902 12.4804 11 12.5C12.036 12.4901 13.0582 12.2618 14 11.83V14.5H2.1245Z" fill="#E77C40"/>
</svg>
